<?xml version="1.0" encoding="UTF-8" standalone="no"?>
<!DOCTYPE svg PUBLIC "-//W3C//DTD SVG 1.1//EN"
 "http://www.w3.org/Graphics/SVG/1.1/DTD/svg11.dtd">
<!-- Generated by graphviz version 2.40.1 (20161225.0304)
 -->
<!-- Title: controllers_diagram Pages: 1 -->
<svg width="352pt" height="357pt"
 viewBox="0.00 0.00 352.00 357.00" xmlns="http://www.w3.org/2000/svg" xmlns:xlink="http://www.w3.org/1999/xlink">
<g id="graph0" class="graph" transform="scale(1 1) rotate(0) translate(4 353)">
<title>controllers_diagram</title>
<polygon fill="transparent" stroke="transparent" points="-4,4 -4,-353 348,-353 348,4 -4,4"/>
<!-- _diagram_info -->
<g id="node1" class="node">
<title>_diagram_info</title>
<text text-anchor="start" x="8" y="-138.6" font-family="Times,serif" font-size="13.00" fill="#000000">Controllers diagram</text>
<text text-anchor="start" x="8" y="-124.6" font-family="Times,serif" font-size="13.00" fill="#000000">Date: Oct 05 2018 &#45; 09:49</text>
<text text-anchor="start" x="8" y="-110.6" font-family="Times,serif" font-size="13.00" fill="#000000">Migration version: 20181004065522</text>
<text text-anchor="start" x="8" y="-96.6" font-family="Times,serif" font-size="13.00" fill="#000000">Generated by RailRoady 1.5.3</text>
<text text-anchor="start" x="8" y="-82.6" font-family="Times,serif" font-size="13.00" fill="#000000">http://railroady.prestonlee.com</text>
</g>
<!-- TasksController -->
<g id="node2" class="node">
<title>TasksController</title>
<path fill="none" stroke="#000000" d="M252,-.5C252,-.5 332,-.5 332,-.5 338,-.5 344,-6.5 344,-12.5 344,-12.5 344,-96.5 344,-96.5 344,-102.5 338,-108.5 332,-108.5 332,-108.5 252,-108.5 252,-108.5 246,-108.5 240,-102.5 240,-96.5 240,-96.5 240,-12.5 240,-12.5 240,-6.5 246,-.5 252,-.5"/>
<text text-anchor="middle" x="292" y="-93.3" font-family="Times,serif" font-size="14.00" fill="#000000">TasksController</text>
<polyline fill="none" stroke="#000000" points="240,-85.5 344,-85.5 "/>
<text text-anchor="start" x="248" y="-70.3" font-family="Times,serif" font-size="14.00" fill="#000000">create</text>
<polyline fill="none" stroke="#000000" points="240,-62.5 344,-62.5 "/>
<polyline fill="none" stroke="#000000" points="240,-38.5 344,-38.5 "/>
<text text-anchor="start" x="248" y="-23.3" font-family="Times,serif" font-size="14.00" fill="#000000">_layout</text>
<text text-anchor="start" x="248" y="-8.3" font-family="Times,serif" font-size="14.00" fill="#000000">task_params</text>
</g>
<!-- ApplicationController -->
<g id="node3" class="node">
<title>ApplicationController</title>
<path fill="none" stroke="#000000" d="M27,-225.5C27,-225.5 139,-225.5 139,-225.5 145,-225.5 151,-231.5 151,-237.5 151,-237.5 151,-306.5 151,-306.5 151,-312.5 145,-318.5 139,-318.5 139,-318.5 27,-318.5 27,-318.5 21,-318.5 15,-312.5 15,-306.5 15,-306.5 15,-237.5 15,-237.5 15,-231.5 21,-225.5 27,-225.5"/>
<text text-anchor="middle" x="83" y="-303.3" font-family="Times,serif" font-size="14.00" fill="#000000">ApplicationController</text>
<polyline fill="none" stroke="#000000" points="15,-295.5 151,-295.5 "/>
<text text-anchor="start" x="23" y="-280.3" font-family="Times,serif" font-size="14.00" fill="#000000">index</text>
<polyline fill="none" stroke="#000000" points="15,-272.5 151,-272.5 "/>
<polyline fill="none" stroke="#000000" points="15,-248.5 151,-248.5 "/>
<text text-anchor="start" x="23" y="-233.3" font-family="Times,serif" font-size="14.00" fill="#000000">_layout</text>
</g>
<!-- SessionsController -->
<g id="node4" class="node">
<title>SessionsController</title>
<path fill="none" stroke="#000000" d="M192,-180.5C192,-180.5 287,-180.5 287,-180.5 293,-180.5 299,-186.5 299,-192.5 299,-192.5 299,-336.5 299,-336.5 299,-342.5 293,-348.5 287,-348.5 287,-348.5 192,-348.5 192,-348.5 186,-348.5 180,-342.5 180,-336.5 180,-336.5 180,-192.5 180,-192.5 180,-186.5 186,-180.5 192,-180.5"/>
<text text-anchor="middle" x="239.5" y="-333.3" font-family="Times,serif" font-size="14.00" fill="#000000">SessionsController</text>
<polyline fill="none" stroke="#000000" points="180,-325.5 299,-325.5 "/>
<text text-anchor="start" x="188" y="-310.3" font-family="Times,serif" font-size="14.00" fill="#000000">create</text>
<text text-anchor="start" x="188" y="-295.3" font-family="Times,serif" font-size="14.00" fill="#000000">home</text>
<text text-anchor="start" x="188" y="-280.3" font-family="Times,serif" font-size="14.00" fill="#000000">index</text>
<text text-anchor="start" x="188" y="-265.3" font-family="Times,serif" font-size="14.00" fill="#000000">show</text>
<polyline fill="none" stroke="#000000" points="180,-257.5 299,-257.5 "/>
<polyline fill="none" stroke="#000000" points="180,-233.5 299,-233.5 "/>
<text text-anchor="start" x="188" y="-218.3" font-family="Times,serif" font-size="14.00" fill="#000000">_layout</text>
<text text-anchor="start" x="188" y="-203.3" font-family="Times,serif" font-size="14.00" fill="#000000">session_params</text>
<text text-anchor="start" x="188" y="-188.3" font-family="Times,serif" font-size="14.00" fill="#000000">showstate</text>
</g>
</g>
</svg>
