<?xml version="1.0" encoding="UTF-8" standalone="no"?>
<!DOCTYPE svg PUBLIC "-//W3C//DTD SVG 1.1//EN"
 "http://www.w3.org/Graphics/SVG/1.1/DTD/svg11.dtd">
<!-- Generated by graphviz version 2.40.1 (20161225.0304)
 -->
<!-- Title: models_diagram Pages: 1 -->
<svg width="544pt" height="739pt"
 viewBox="0.00 0.00 544.34 739.00" xmlns="http://www.w3.org/2000/svg" xmlns:xlink="http://www.w3.org/1999/xlink">
<g id="graph0" class="graph" transform="scale(1 1) rotate(0) translate(4 735)">
<title>models_diagram</title>
<polygon fill="transparent" stroke="transparent" points="-4,4 -4,-735 540.3431,-735 540.3431,4 -4,4"/>
<!-- _diagram_info -->
<g id="node1" class="node">
<title>_diagram_info</title>
<text text-anchor="start" x="8" y="-657.1" font-family="Times,serif" font-size="13.00" fill="#000000">Models diagram</text>
<text text-anchor="start" x="8" y="-643.1" font-family="Times,serif" font-size="13.00" fill="#000000">Date: Oct 05 2018 &#45; 09:49</text>
<text text-anchor="start" x="8" y="-629.1" font-family="Times,serif" font-size="13.00" fill="#000000">Migration version: 20181004065522</text>
<text text-anchor="start" x="8" y="-615.1" font-family="Times,serif" font-size="13.00" fill="#000000">Generated by RailRoady 1.5.3</text>
<text text-anchor="start" x="8" y="-601.1" font-family="Times,serif" font-size="13.00" fill="#000000">http://railroady.prestonlee.com</text>
</g>
<!-- Vote -->
<g id="node2" class="node">
<title>Vote</title>
<path fill="none" stroke="#000000" d="M197.5,-188.5C197.5,-188.5 304.5,-188.5 304.5,-188.5 310.5,-188.5 316.5,-194.5 316.5,-200.5 316.5,-200.5 316.5,-297.5 316.5,-297.5 316.5,-303.5 310.5,-309.5 304.5,-309.5 304.5,-309.5 197.5,-309.5 197.5,-309.5 191.5,-309.5 185.5,-303.5 185.5,-297.5 185.5,-297.5 185.5,-200.5 185.5,-200.5 185.5,-194.5 191.5,-188.5 197.5,-188.5"/>
<text text-anchor="middle" x="251" y="-294.3" font-family="Times,serif" font-size="14.00" fill="#000000">Vote</text>
<polyline fill="none" stroke="#000000" points="185.5,-286.5 316.5,-286.5 "/>
<text text-anchor="start" x="193.5" y="-271.3" font-family="Times,serif" font-size="14.00" fill="#000000">id :integer</text>
<text text-anchor="start" x="193.5" y="-256.3" font-family="Times,serif" font-size="14.00" fill="#000000">type :varchar</text>
<text text-anchor="start" x="193.5" y="-241.3" font-family="Times,serif" font-size="14.00" fill="#000000">task_id :integer</text>
<text text-anchor="start" x="193.5" y="-226.3" font-family="Times,serif" font-size="14.00" fill="#000000">user_id :integer</text>
<text text-anchor="start" x="193.5" y="-211.3" font-family="Times,serif" font-size="14.00" fill="#000000">created_at :datetime</text>
<text text-anchor="start" x="193.5" y="-196.3" font-family="Times,serif" font-size="14.00" fill="#000000">updated_at :datetime</text>
</g>
<!-- User -->
<g id="node5" class="node">
<title>User</title>
<path fill="none" stroke="#000000" d="M197.5,-.5C197.5,-.5 304.5,-.5 304.5,-.5 310.5,-.5 316.5,-6.5 316.5,-12.5 316.5,-12.5 316.5,-139.5 316.5,-139.5 316.5,-145.5 310.5,-151.5 304.5,-151.5 304.5,-151.5 197.5,-151.5 197.5,-151.5 191.5,-151.5 185.5,-145.5 185.5,-139.5 185.5,-139.5 185.5,-12.5 185.5,-12.5 185.5,-6.5 191.5,-.5 197.5,-.5"/>
<text text-anchor="middle" x="251" y="-136.3" font-family="Times,serif" font-size="14.00" fill="#000000">User</text>
<polyline fill="none" stroke="#000000" points="185.5,-128.5 316.5,-128.5 "/>
<text text-anchor="start" x="193.5" y="-113.3" font-family="Times,serif" font-size="14.00" fill="#000000">id :integer</text>
<text text-anchor="start" x="193.5" y="-98.3" font-family="Times,serif" font-size="14.00" fill="#000000">name :varchar</text>
<text text-anchor="start" x="193.5" y="-83.3" font-family="Times,serif" font-size="14.00" fill="#000000">auth :varchar</text>
<text text-anchor="start" x="193.5" y="-68.3" font-family="Times,serif" font-size="14.00" fill="#000000">phone :varchar</text>
<text text-anchor="start" x="193.5" y="-53.3" font-family="Times,serif" font-size="14.00" fill="#000000">bio :text</text>
<text text-anchor="start" x="193.5" y="-38.3" font-family="Times,serif" font-size="14.00" fill="#000000">email :varchar</text>
<text text-anchor="start" x="193.5" y="-23.3" font-family="Times,serif" font-size="14.00" fill="#000000">created_at :datetime</text>
<text text-anchor="start" x="193.5" y="-8.3" font-family="Times,serif" font-size="14.00" fill="#000000">updated_at :datetime</text>
</g>
<!-- Vote&#45;&gt;User -->
<g id="edge1" class="edge">
<title>Vote&#45;&gt;User</title>
<path fill="none" stroke="#91fbb0" d="M244.3789,-180.3139C244.2798,-173.5528 244.2378,-166.6399 244.253,-159.7503"/>
<ellipse fill="none" stroke="#91fbb0" cx="244.4553" cy="-184.4937" rx="4" ry="4"/>
<ellipse fill="#91fbb0" stroke="#91fbb0" cx="244.2752" cy="-155.6836" rx="4" ry="4"/>
</g>
<!-- ApplicationRecord -->
<g id="node3" class="node">
<title>ApplicationRecord</title>
<ellipse fill="none" stroke="#000000" cx="459" cy="-632.5" rx="77.1866" ry="18"/>
<text text-anchor="middle" x="459" y="-628.8" font-family="Times,serif" font-size="14.00" fill="#000000">ApplicationRecord</text>
</g>
<!-- Session -->
<g id="node4" class="node">
<title>Session</title>
<path fill="none" stroke="#000000" d="M244.5,-534.5C244.5,-534.5 351.5,-534.5 351.5,-534.5 357.5,-534.5 363.5,-540.5 363.5,-546.5 363.5,-546.5 363.5,-718.5 363.5,-718.5 363.5,-724.5 357.5,-730.5 351.5,-730.5 351.5,-730.5 244.5,-730.5 244.5,-730.5 238.5,-730.5 232.5,-724.5 232.5,-718.5 232.5,-718.5 232.5,-546.5 232.5,-546.5 232.5,-540.5 238.5,-534.5 244.5,-534.5"/>
<text text-anchor="middle" x="298" y="-715.3" font-family="Times,serif" font-size="14.00" fill="#000000">Session</text>
<polyline fill="none" stroke="#000000" points="232.5,-707.5 363.5,-707.5 "/>
<text text-anchor="start" x="240.5" y="-692.3" font-family="Times,serif" font-size="14.00" fill="#000000">id :integer</text>
<text text-anchor="start" x="240.5" y="-677.3" font-family="Times,serif" font-size="14.00" fill="#000000">name :varchar</text>
<text text-anchor="start" x="240.5" y="-662.3" font-family="Times,serif" font-size="14.00" fill="#000000">time :datetime</text>
<text text-anchor="start" x="240.5" y="-647.3" font-family="Times,serif" font-size="14.00" fill="#000000">transcript :text</text>
<text text-anchor="start" x="240.5" y="-632.3" font-family="Times,serif" font-size="14.00" fill="#000000">taks_id :integer</text>
<text text-anchor="start" x="240.5" y="-617.3" font-family="Times,serif" font-size="14.00" fill="#000000">users_id :integer</text>
<text text-anchor="start" x="240.5" y="-602.3" font-family="Times,serif" font-size="14.00" fill="#000000">votes_id :integer</text>
<text text-anchor="start" x="240.5" y="-587.3" font-family="Times,serif" font-size="14.00" fill="#000000">created_at :datetime</text>
<text text-anchor="start" x="240.5" y="-572.3" font-family="Times,serif" font-size="14.00" fill="#000000">updated_at :datetime</text>
<text text-anchor="start" x="240.5" y="-557.3" font-family="Times,serif" font-size="14.00" fill="#000000">details :text</text>
<text text-anchor="start" x="240.5" y="-542.3" font-family="Times,serif" font-size="14.00" fill="#000000">invite :text</text>
</g>
<!-- Task -->
<g id="node6" class="node">
<title>Task</title>
<path fill="none" stroke="#000000" d="M244.5,-346.5C244.5,-346.5 351.5,-346.5 351.5,-346.5 357.5,-346.5 363.5,-352.5 363.5,-358.5 363.5,-358.5 363.5,-485.5 363.5,-485.5 363.5,-491.5 357.5,-497.5 351.5,-497.5 351.5,-497.5 244.5,-497.5 244.5,-497.5 238.5,-497.5 232.5,-491.5 232.5,-485.5 232.5,-485.5 232.5,-358.5 232.5,-358.5 232.5,-352.5 238.5,-346.5 244.5,-346.5"/>
<text text-anchor="middle" x="298" y="-482.3" font-family="Times,serif" font-size="14.00" fill="#000000">Task</text>
<polyline fill="none" stroke="#000000" points="232.5,-474.5 363.5,-474.5 "/>
<text text-anchor="start" x="240.5" y="-459.3" font-family="Times,serif" font-size="14.00" fill="#000000">id :integer</text>
<text text-anchor="start" x="240.5" y="-444.3" font-family="Times,serif" font-size="14.00" fill="#000000">title :varchar</text>
<text text-anchor="start" x="240.5" y="-429.3" font-family="Times,serif" font-size="14.00" fill="#000000">body :text</text>
<text text-anchor="start" x="240.5" y="-414.3" font-family="Times,serif" font-size="14.00" fill="#000000">session_id :integer</text>
<text text-anchor="start" x="240.5" y="-399.3" font-family="Times,serif" font-size="14.00" fill="#000000">created_at :datetime</text>
<text text-anchor="start" x="240.5" y="-384.3" font-family="Times,serif" font-size="14.00" fill="#000000">updated_at :datetime</text>
<text text-anchor="start" x="240.5" y="-369.3" font-family="Times,serif" font-size="14.00" fill="#000000">type :varchar</text>
<text text-anchor="start" x="240.5" y="-354.3" font-family="Times,serif" font-size="14.00" fill="#000000">link :varchar</text>
</g>
<!-- Session&#45;&gt;Task -->
<g id="edge2" class="edge">
<title>Session&#45;&gt;Task</title>
<path fill="none" stroke="#9d192b" d="M298,-526.2367C298,-520.0554 298,-513.8787 298,-507.7921"/>
<ellipse fill="none" stroke="#9d192b" cx="298" cy="-530.3373" rx="4" ry="4"/>
<polygon fill="#9d192b" stroke="#9d192b" points="298.0001,-507.6486 302.5,-497.6485 298,-502.6486 298,-497.6486 298,-497.6486 298,-497.6486 298,-502.6486 293.5,-497.6486 298.0001,-507.6486 298.0001,-507.6486"/>
</g>
<!-- User&#45;&gt;Vote -->
<g id="edge3" class="edge">
<title>User&#45;&gt;Vote</title>
<path fill="none" stroke="#3007d7" d="M257.747,-159.7503C257.7622,-166.6399 257.7202,-173.5528 257.6211,-180.3139"/>
<ellipse fill="none" stroke="#3007d7" cx="257.7248" cy="-155.6836" rx="4" ry="4"/>
<ellipse fill="#3007d7" stroke="#3007d7" cx="257.5447" cy="-184.4937" rx="4" ry="4"/>
</g>
<!-- Task&#45;&gt;Vote -->
<g id="edge4" class="edge">
<title>Task&#45;&gt;Vote</title>
<path fill="none" stroke="#c68df4" d="M275.3351,-338.5739C273.597,-332.1764 271.8529,-325.7564 270.1407,-319.4542"/>
<ellipse fill="none" stroke="#c68df4" cx="276.4048" cy="-342.5113" rx="4" ry="4"/>
<polygon fill="#c68df4" stroke="#c68df4" points="270.1038,-319.3181 271.8246,-308.4881 268.7929,-314.493 267.482,-309.6679 267.482,-309.6679 267.482,-309.6679 268.7929,-314.493 263.1394,-310.8477 270.1038,-319.3181 270.1038,-319.3181"/>
</g>
<!-- Task&#45;&gt;User -->
<g id="edge5" class="edge">
<title>Task&#45;&gt;User</title>
<path fill="none" stroke="#149681" d="M324.4095,-338.2918C334.6385,-293.0072 340.7581,-236.5626 326,-188 323.1677,-178.68 319.2735,-169.4298 314.7378,-160.473"/>
<ellipse fill="none" stroke="#149681" cx="323.4394" cy="-342.4294" rx="4" ry="4"/>
<polygon fill="#149681" stroke="#149681" points="314.7203,-160.4403 313.9718,-149.4999 312.362,-156.0313 310.0037,-151.6224 310.0037,-151.6224 310.0037,-151.6224 312.362,-156.0313 306.0357,-153.7448 314.7203,-160.4403 314.7203,-160.4403"/>
</g>
</g>
</svg>
