<?xml version="1.0" encoding="UTF-8" standalone="no"?>
<!DOCTYPE svg PUBLIC "-//W3C//DTD SVG 1.1//EN"
 "http://www.w3.org/Graphics/SVG/1.1/DTD/svg11.dtd">
<!-- Generated by graphviz version 2.40.1 (20161225.0304)
 -->
<!-- Title: models_diagram Pages: 1 -->
<svg width="488pt" height="302pt"
 viewBox="0.00 0.00 488.34 302.00" xmlns="http://www.w3.org/2000/svg" xmlns:xlink="http://www.w3.org/1999/xlink">
<g id="graph0" class="graph" transform="scale(1 1) rotate(0) translate(4 298)">
<title>models_diagram</title>
<polygon fill="transparent" stroke="transparent" points="-4,4 -4,-298 484.3431,-298 484.3431,4 -4,4"/>
<!-- _diagram_info -->
<g id="node1" class="node">
<title>_diagram_info</title>
<text text-anchor="start" x="8" y="-279.6" font-family="Times,serif" font-size="13.00" fill="#000000">Models diagram</text>
<text text-anchor="start" x="8" y="-265.6" font-family="Times,serif" font-size="13.00" fill="#000000">Date: Oct 05 2018 &#45; 09:49</text>
<text text-anchor="start" x="8" y="-251.6" font-family="Times,serif" font-size="13.00" fill="#000000">Migration version: 20181004065522</text>
<text text-anchor="start" x="8" y="-237.6" font-family="Times,serif" font-size="13.00" fill="#000000">Generated by RailRoady 1.5.3</text>
<text text-anchor="start" x="8" y="-223.6" font-family="Times,serif" font-size="13.00" fill="#000000">http://railroady.prestonlee.com</text>
</g>
<!-- Vote -->
<g id="node2" class="node">
<title>Vote</title>
<ellipse fill="none" stroke="#000000" cx="242" cy="-90" rx="27.8951" ry="18"/>
<text text-anchor="middle" x="242" y="-86.3" font-family="Times,serif" font-size="14.00" fill="#000000">Vote</text>
</g>
<!-- User -->
<g id="node5" class="node">
<title>User</title>
<ellipse fill="none" stroke="#000000" cx="242" cy="-18" rx="27.0966" ry="18"/>
<text text-anchor="middle" x="242" y="-14.3" font-family="Times,serif" font-size="14.00" fill="#000000">User</text>
</g>
<!-- Vote&#45;&gt;User -->
<g id="edge1" class="edge">
<title>Vote&#45;&gt;User</title>
<path fill="none" stroke="#5dc027" d="M235.497,-64.2031C235.1658,-57.5313 235.1677,-50.3498 235.5026,-43.6838"/>
<ellipse fill="none" stroke="#5dc027" cx="235.7913" cy="-68.213" rx="4" ry="4"/>
<ellipse fill="#5dc027" stroke="#5dc027" cx="235.8079" cy="-39.582" rx="4" ry="4"/>
</g>
<!-- ApplicationRecord -->
<g id="node3" class="node">
<title>ApplicationRecord</title>
<ellipse fill="none" stroke="#000000" cx="403" cy="-255" rx="77.1866" ry="18"/>
<text text-anchor="middle" x="403" y="-251.3" font-family="Times,serif" font-size="14.00" fill="#000000">ApplicationRecord</text>
</g>
<!-- Session -->
<g id="node4" class="node">
<title>Session</title>
<ellipse fill="none" stroke="#000000" cx="270" cy="-255" rx="37.8943" ry="18"/>
<text text-anchor="middle" x="270" y="-251.3" font-family="Times,serif" font-size="14.00" fill="#000000">Session</text>
</g>
<!-- Task -->
<g id="node6" class="node">
<title>Task</title>
<ellipse fill="none" stroke="#000000" cx="270" cy="-162" rx="27.8951" ry="18"/>
<text text-anchor="middle" x="270" y="-158.3" font-family="Times,serif" font-size="14.00" fill="#000000">Task</text>
</g>
<!-- Session&#45;&gt;Task -->
<g id="edge2" class="edge">
<title>Session&#45;&gt;Task</title>
<path fill="none" stroke="#0bf0c4" d="M270,-228.4432C270,-216.4479 270,-202.268 270,-190.0949"/>
<ellipse fill="none" stroke="#0bf0c4" cx="270" cy="-232.6262" rx="4" ry="4"/>
<polygon fill="#0bf0c4" stroke="#0bf0c4" points="270.0001,-190.0192 274.5,-180.0191 270,-185.0192 270,-180.0192 270,-180.0192 270,-180.0192 270,-185.0192 265.5,-180.0192 270.0001,-190.0192 270.0001,-190.0192"/>
</g>
<!-- User&#45;&gt;Vote -->
<g id="edge3" class="edge">
<title>User&#45;&gt;Vote</title>
<path fill="none" stroke="#3a4256" d="M248.4974,-43.6838C248.8323,-50.3498 248.8342,-57.5313 248.503,-64.2031"/>
<ellipse fill="none" stroke="#3a4256" cx="248.1921" cy="-39.582" rx="4" ry="4"/>
<ellipse fill="#3a4256" stroke="#3a4256" cx="248.2087" cy="-68.213" rx="4" ry="4"/>
</g>
<!-- Task&#45;&gt;Vote -->
<g id="edge4" class="edge">
<title>Task&#45;&gt;Vote</title>
<path fill="none" stroke="#5c5049" d="M260.0796,-136.4903C257.6389,-130.2144 255.0171,-123.4724 252.548,-117.1233"/>
<ellipse fill="none" stroke="#5c5049" cx="261.6288" cy="-140.4742" rx="4" ry="4"/>
<polygon fill="#5c5049" stroke="#5c5049" points="252.4663,-116.9131 253.0358,-105.962 250.654,-112.2531 248.8417,-107.593 248.8417,-107.593 248.8417,-107.593 250.654,-112.2531 244.6477,-109.2241 252.4663,-116.9131 252.4663,-116.9131"/>
</g>
<!-- Task&#45;&gt;User -->
<g id="edge5" class="edge">
<title>Task&#45;&gt;User</title>
<path fill="none" stroke="#a23a11" d="M277.8305,-136.4345C282.1799,-118.1203 285.5267,-93.0726 279,-72 275.6366,-61.1408 269.2524,-50.5231 262.7217,-41.6162"/>
<ellipse fill="none" stroke="#a23a11" cx="276.792" cy="-140.4634" rx="4" ry="4"/>
<polygon fill="#a23a11" stroke="#a23a11" points="262.6582,-41.5348 260.0579,-30.8817 259.5837,-37.5918 256.5092,-33.6488 256.5092,-33.6488 256.5092,-33.6488 259.5837,-37.5918 252.9605,-36.4158 262.6582,-41.5348 262.6582,-41.5348"/>
</g>
</g>
</svg>
